HIERARCHY
ROOT Hips
{
  OFFSET 0.000000 95.000000 0.000000
  CHANNELS 6 Xposition Yposition Zposition Zrotation Xrotation Yrotation
  JOINT Spine
  {
    OFFSET 0.000000 10.000000 0.000000
    CHANNELS 3 Zrotation Xrotation Yrotation
    JOINT Spine1
    {
      OFFSET 0.000000 12.000000 0.000000
      CHANNELS 3 Zrotation Xrotation Yrotation
      JOINT Spine2
      {
        OFFSET 0.000000 12.000000 0.000000
        CHANNELS 3 Zrotation Xrotation Yrotation
        JOINT Neck
        {
          OFFSET 0.000000 10.000000 0.000000
          CHANNELS 3 Zrotation Xrotation Yrotation
          JOINT Head
          {
            OFFSET 0.000000 8.000000 0.000000
            CHANNELS 3 Zrotation Xrotation Yrotation
            End Site
            {
              OFFSET 0.000000 10.000000 0.000000
            }
          }
        }
        JOINT LeftShoulder
        {
          OFFSET 6.000000 8.000000 0.000000
          CHANNELS 3 Zrotation Xrotation Yrotation
          JOINT LeftArm
          {
            OFFSET 12.000000 0.000000 0.000000
            CHANNELS 3 Zrotation Xrotation Yrotation
            JOINT LeftForeArm
            {
              OFFSET 24.000000 0.000000 0.000000
              CHANNELS 3 Zrotation Xrotation Yrotation
              JOINT LeftHand
              {
                OFFSET 22.000000 0.000000 0.000000
                CHANNELS 3 Zrotation Xrotation Yrotation
                JOINT LeftHandThumb1
                {
                  OFFSET 1.800000 -1.400000 0.500000
                  CHANNELS 3 Zrotation Xrotation Yrotation
                  JOINT LeftHandThumb2
                  {
                    OFFSET 2.400000 0.000000 0.000000
                    CHANNELS 3 Zrotation Xrotation Yrotation
                    JOINT LeftHandThumb3
                    {
                      OFFSET 1.900000 0.000000 0.000000
                      CHANNELS 3 Zrotation Xrotation Yrotation
                      End Site
                      {
                        OFFSET 1.600000 0.000000 0.000000
                      }
                    }
                  }
                }
                JOINT LeftHandIndex1
                {
                  OFFSET 6.600000 1.200000 0.300000
                  CHANNELS 3 Zrotation Xrotation Yrotation
                  JOINT LeftHandIndex2
                  {
                    OFFSET 2.000000 0.000000 0.000000
                    CHANNELS 3 Zrotation Xrotation Yrotation
                    JOINT LeftHandIndex3
                    {
                      OFFSET 1.200000 0.000000 0.000000
                      CHANNELS 3 Zrotation Xrotation Yrotation
                      End Site
                      {
                        OFFSET 1.000000 0.000000 0.000000
                      }
                    }
                  }
                }
                JOINT LeftHandMiddle1
                {
                  OFFSET 7.200000 0.000000 0.300000
                  CHANNELS 3 Zrotation Xrotation Yrotation
                  JOINT LeftHandMiddle2
                  {
                    OFFSET 3.000000 0.000000 0.000000
                    CHANNELS 3 Zrotation Xrotation Yrotation
                    JOINT LeftHandMiddle3
                    {
                      OFFSET 2.000000 0.000000 0.000000
                      CHANNELS 3 Zrotation Xrotation Yrotation
                      End Site
                      {
                        OFFSET 1.600000 0.000000 0.000000
                      }
                    }
                  }
                }
                JOINT LeftHandRing1
                {
                  OFFSET 7.100000 -1.000000 0.400000
                  CHANNELS 3 Zrotation Xrotation Yrotation
                  JOINT LeftHandRing2
                  {
                    OFFSET 2.600000 0.000000 0.000000
                    CHANNELS 3 Zrotation Xrotation Yrotation
                    JOINT LeftHandRing3
                    {
                      OFFSET 1.600000 0.000000 0.000000
                      CHANNELS 3 Zrotation Xrotation Yrotation
                      End Site
                      {
                        OFFSET 1.300000 0.000000 0.000000
                      }
                    }
                  }
                }
                JOINT LeftHandPinky1
                {
                  OFFSET 6.500000 -2.000000 0.500000
                  CHANNELS 3 Zrotation Xrotation Yrotation
                  JOINT LeftHandPinky2
                  {
                    OFFSET 1.900000 0.000000 0.000000
                    CHANNELS 3 Zrotation Xrotation Yrotation
                    JOINT LeftHandPinky3
                    {
                      OFFSET 1.400000 0.000000 0.000000
                      CHANNELS 3 Zrotation Xrotation Yrotation
                      End Site
                      {
                        OFFSET 1.300000 0.000000 0.000000
                      }
                    }
                  }
                }
              }
            }
          }
        }
        JOINT RightShoulder
        {
          OFFSET -6.000000 8.000000 0.000000
          CHANNELS 3 Zrotation Xrotation Yrotation
          JOINT RightArm
          {
            OFFSET -12.000000 0.000000 0.000000
            CHANNELS 3 Zrotation Xrotation Yrotation
            JOINT RightForeArm
            {
              OFFSET -24.000000 0.000000 0.000000
              CHANNELS 3 Zrotation Xrotation Yrotation
              JOINT RightHand
              {
                OFFSET -22.000000 0.000000 0.000000
                CHANNELS 3 Zrotation Xrotation Yrotation
                JOINT RightHandThumb1
                {
                  OFFSET -1.800000 -1.400000 0.500000
                  CHANNELS 3 Zrotation Xrotation Yrotation
                  JOINT RightHandThumb2
                  {
                    OFFSET -2.400000 0.000000 0.000000
                    CHANNELS 3 Zrotation Xrotation Yrotation
                    JOINT RightHandThumb3
                    {
                      OFFSET -1.900000 0.000000 0.000000
                      CHANNELS 3 Zrotation Xrotation Yrotation
                      End Site
                      {
                        OFFSET -1.600000 0.000000 0.000000
                      }
                    }
                  }
                }
                JOINT RightHandIndex1
                {
                  OFFSET -6.600000 1.200000 0.300000
                  CHANNELS 3 Zrotation Xrotation Yrotation
                  JOINT RightHandIndex2
                  {
                    OFFSET -2.000000 0.000000 0.000000
                    CHANNELS 3 Zrotation Xrotation Yrotation
                    JOINT RightHandIndex3
                    {
                      OFFSET -1.200000 0.000000 0.000000
                      CHANNELS 3 Zrotation Xrotation Yrotation
                      End Site
                      {
                        OFFSET -1.000000 0.000000 0.000000
                      }
                    }
                  }
                }
                JOINT RightHandMiddle1
                {
                  OFFSET -7.200000 0.000000 0.300000
                  CHANNELS 3 Zrotation Xrotation Yrotation
                  JOINT RightHandMiddle2
                  {
                    OFFSET -3.000000 0.000000 0.000000
                    CHANNELS 3 Zrotation Xrotation Yrotation
                    JOINT RightHandMiddle3
                    {
                      OFFSET -2.000000 0.000000 0.000000
                      CHANNELS 3 Zrotation Xrotation Yrotation
                      End Site
                      {
                        OFFSET -1.600000 0.000000 0.000000
                      }
                    }
                  }
                }
                JOINT RightHandRing1
                {
                  OFFSET -7.100000 -1.000000 0.400000
                  CHANNELS 3 Zrotation Xrotation Yrotation
                  JOINT RightHandRing2
                  {
                    OFFSET -2.600000 0.000000 0.000000
                    CHANNELS 3 Zrotation Xrotation Yrotation
                    JOINT RightHandRing3
                    {
                      OFFSET -1.600000 0.000000 0.000000
                      CHANNELS 3 Zrotation Xrotation Yrotation
                      End Site
                      {
                        OFFSET -1.300000 0.000000 0.000000
                      }
                    }
                  }
                }
                JOINT RightHandPinky1
                {
                  OFFSET -6.500000 -2.000000 0.500000
                  CHANNELS 3 Zrotation Xrotation Yrotation
                  JOINT RightHandPinky2
                  {
                    OFFSET -1.900000 0.000000 0.000000
                    CHANNELS 3 Zrotation Xrotation Yrotation
                    JOINT RightHandPinky3
                    {
                      OFFSET -1.400000 0.000000 0.000000
                      CHANNELS 3 Zrotation Xrotation Yrotation
                      End Site
                      {
                        OFFSET -1.300000 0.000000 0.000000
                      }
                    }
                  }
                }
              }
            }
          }
        }
      }
    }
  }
  JOINT LeftUpLeg
  {
    OFFSET 10.000000 -5.000000 0.000000
    CHANNELS 3 Zrotation Xrotation Yrotation
    JOINT LeftLeg
    {
      OFFSET 0.000000 -42.000000 0.000000
      CHANNELS 3 Zrotation Xrotation Yrotation
      JOINT LeftFoot
      {
        OFFSET 0.000000 -42.000000 4.000000
        CHANNELS 3 Zrotation Xrotation Yrotation
        End Site
        {
          OFFSET 0.000000 0.000000 12.000000
        }
      }
    }
  }
  JOINT RightUpLeg
  {
    OFFSET -10.000000 -5.000000 0.000000
    CHANNELS 3 Zrotation Xrotation Yrotation
    JOINT RightLeg
    {
      OFFSET 0.000000 -42.000000 0.000000
      CHANNELS 3 Zrotation Xrotation Yrotation
      JOINT RightFoot
      {
        OFFSET 0.000000 -42.000000 4.000000
        CHANNELS 3 Zrotation Xrotation Yrotation
        End Site
        {
          OFFSET 0.000000 0.000000 12.000000
        }
      }
    }
  }
}
MOTION
Frames: 5
Frame Time: 0.033333
0.0781 0.5240 -0.1524 -3.2397 12.4832 16.3113 3.7652 1.0956 -16.2008 0.0000 0.0000 0.0000 0.0000 0.0000 0.0000 28.4712 56.3144 19.0382 0.0000 0.0000 0.0000 0.0000 0.0000 0.0000 -77.2985 -8.0541 5.1910 0.4050 -7.0316 8.3461 0.0000 0.0000 0.0000 0.0000 0.0000 0.0000 0.0000 0.0000 0.0000 0.0000 0.0000 0.0000 0.0000 0.0000 0.0000 0.0000 0.0000 0.0000 0.0000 0.0000 0.0000 0.0000 0.0000 0.0000 0.0000 0.0000 0.0000 0.0000 0.0000 0.0000 0.0000 0.0000 0.0000 0.0000 0.0000 0.0000 0.0000 0.0000 0.0000 0.0000 0.0000 0.0000 0.0000 0.0000 0.0000 0.0000 0.0000 0.0000 0.0000 0.0000 0.0000 9.1972 -17.4419 48.0966 -70.1635 57.2981 17.4482 -56.7987 -46.3067 64.1279 -4.8452 -1.8279 0.7408 35.4878 0.0000 0.0000 15.4482 0.0000 0.0000 54.9766 -2.0472 14.5834 12.9064 0.0000 0.0000 14.8403 0.0000 0.0000 93.8707 -12.2926 16.2664 55.4400 0.0000 0.0000 92.1523 0.0000 0.0000 93.4143 -14.2652 15.8352 64.6684 0.0000 0.0000 81.4529 0.0000 0.0000 89.1760 -19.1038 17.1483 58.0008 0.0000 0.0000 70.9008 0.0000 0.0000 7.0618 -24.9265 -19.0767 0.0000 0.0000 0.0000 0.0000 0.0000 0.0000 15.2751 -21.8335 -19.5012 0.0000 0.0000 0.0000 0.0000 0.0000 0.0000
0.0736 0.5262 -0.1570 -3.6092 12.5611 15.9215 4.1036 1.1639 -15.8076 0.0000 0.0000 0.0000 0.0000 0.0000 0.0000 27.5555 56.3169 18.4500 0.0000 0.0000 0.0000 0.0000 0.0000 0.0000 -77.4180 -8.6316 4.5297 0.0243 -7.2193 8.6414 0.0000 0.0000 0.0000 0.0000 0.0000 0.0000 0.0000 0.0000 0.0000 0.0000 0.0000 0.0000 0.0000 0.0000 0.0000 0.0000 0.0000 0.0000 0.0000 0.0000 0.0000 0.0000 0.0000 0.0000 0.0000 0.0000 0.0000 0.0000 0.0000 0.0000 0.0000 0.0000 0.0000 0.0000 0.0000 0.0000 0.0000 0.0000 0.0000 0.0000 0.0000 0.0000 0.0000 0.0000 0.0000 0.0000 0.0000 0.0000 0.0000 0.0000 0.0000 9.4817 -17.5977 47.8012 -74.2638 56.7394 13.4033 -61.4585 -50.1272 64.8861 -9.4994 -2.7872 0.4697 38.9867 0.0000 0.0000 16.4946 0.0000 0.0000 39.4424 0.3273 8.5741 13.9153 0.0000 0.0000 8.6552 0.0000 0.0000 96.9690 -11.3020 14.7835 55.4363 0.0000 0.0000 94.8736 0.0000 0.0000 93.9765 -12.6460 14.5915 64.6280 0.0000 0.0000 81.1998 0.0000 0.0000 89.0561 -16.4563 15.6996 61.2495 0.0000 0.0000 69.1676 0.0000 0.0000 7.5035 -25.0464 -18.8721 0.0000 0.0000 0.0000 0.0000 0.0000 0.0000 15.4594 -20.7080 -18.9947 0.0000 0.0000 0.0000 0.0000 0.0000 0.0000
0.0723 0.5335 -0.1603 -3.8382 12.3025 15.9224 4.3076 1.2220 -15.8076 0.0000 0.0000 0.0000 0.0000 0.0000 0.0000 26.8395 56.4855 17.9794 0.0000 0.0000 0.0000 0.0000 0.0000 0.0000 -77.9038 -8.9992 3.6760 0.3323 -7.4467 8.7613 0.0000 0.0000 0.0000 0.0000 0.0000 0.0000 0.0000 0.0000 0.0000 0.0000 0.0000 0.0000 0.0000 0.0000 0.0000 0.0000 0.0000 0.0000 0.0000 0.0000 0.0000 0.0000 0.0000 0.0000 0.0000 0.0000 0.0000 0.0000 0.0000 0.0000 0.0000 0.0000 0.0000 0.0000 0.0000 0.0000 0.0000 0.0000 0.0000 0.0000 0.0000 0.0000 0.0000 0.0000 0.0000 0.0000 0.0000 0.0000 0.0000 0.0000 0.0000 9.1175 -17.1195 47.4013 -78.5618 56.3074 10.0366 -58.1764 -54.1383 54.9177 -6.0589 -5.0627 5.0347 28.1778 0.0000 0.0000 10.2021 0.0000 0.0000 25.8561 0.9173 4.9872 7.0807 0.0000 0.0000 6.3570 0.0000 0.0000 95.9965 -17.0291 20.1272 51.7895 0.0000 0.0000 86.7955 0.0000 0.0000 92.7334 -18.3758 18.9412 60.5426 0.0000 0.0000 82.8103 0.0000 0.0000 89.8258 -21.2850 18.2261 57.4220 0.0000 0.0000 75.7178 0.0000 0.0000 7.7337 -24.7231 -18.9282 0.0000 0.0000 0.0000 0.0000 0.0000 0.0000 15.7178 -21.3663 -19.2490 0.0000 0.0000 0.0000 0.0000 0.0000 0.0000
0.0713 0.5391 -0.1627 -4.0104 12.1064 15.9247 4.4615 1.2659 -15.8089 0.0000 0.0000 0.0000 0.0000 0.0000 0.0000 26.2898 56.6105 17.6179 0.0000 0.0000 0.0000 0.0000 0.0000 0.0000 -78.2616 -9.2748 3.0442 0.5562 -7.6214 8.8611 0.0000 0.0000 0.0000 0.0000 0.0000 0.0000 0.0000 0.0000 0.0000 0.0000 0.0000 0.0000 0.0000 0.0000 0.0000 0.0000 0.0000 0.0000 0.0000 0.0000 0.0000 0.0000 0.0000 0.0000 0.0000 0.0000 0.0000 0.0000 0.0000 0.0000 0.0000 0.0000 0.0000 0.0000 0.0000 0.0000 0.0000 0.0000 0.0000 0.0000 0.0000 0.0000 0.0000 0.0000 0.0000 0.0000 0.0000 0.0000 0.0000 0.0000 0.0000 8.8311 -16.7542 47.0948 -81.6655 55.8422 7.5912 -59.7627 -56.0682 56.7735 -6.0589 -5.0627 5.0347 28.1778 0.0000 0.0000 10.2021 0.0000 0.0000 25.8561 0.9173 4.9872 7.0807 0.0000 0.0000 6.3570 0.0000 0.0000 95.9965 -17.0291 20.1272 51.7895 0.0000 0.0000 86.7955 0.0000 0.0000 92.7334 -18.3758 18.9412 60.5426 0.0000 0.0000 82.8103 0.0000 0.0000 89.8258 -21.2850 18.2261 57.4220 0.0000 0.0000 75.7178 0.0000 0.0000 7.9042 -24.4785 -18.9701 0.0000 0.0000 0.0000 0.0000 0.0000 0.0000 15.9134 -21.8643 -19.4465 0.0000 0.0000 0.0000 0.0000 0.0000 0.0000
0.0787 0.5185 -0.1478 -3.1053 11.9319 16.0660 3.9735 1.1352 -15.9193 0.0000 0.0000 0.0000 0.0000 0.0000 0.0000 26.3042 57.2691 17.5883 0.0000 0.0000 0.0000 0.0000 0.0000 0.0000 -78.0347 -9.0007 3.3519 -0.4398 -6.8669 8.2796 0.0000 0.0000 0.0000 0.0000 0.0000 0.0000 0.0000 0.0000 0.0000 0.0000 0.0000 0.0000 0.0000 0.0000 0.0000 0.0000 0.0000 0.0000 0.0000 0.0000 0.0000 0.0000 0.0000 0.0000 0.0000 0.0000 0.0000 0.0000 0.0000 0.0000 0.0000 0.0000 0.0000 0.0000 0.0000 0.0000 0.0000 0.0000 0.0000 0.0000 0.0000 0.0000 0.0000 0.0000 0.0000 0.0000 0.0000 0.0000 0.0000 0.0000 0.0000 7.7847 -16.0794 47.2086 -77.5458 55.0740 10.6794 -53.7779 -54.7662 50.5291 -7.7412 -6.1185 6.1685 24.6527 0.0000 0.0000 4.7224 0.0000 0.0000 18.4471 0.8781 3.0504 4.9391 0.0000 0.0000 4.6919 0.0000 0.0000 92.8316 -17.9484 21.8676 53.7966 0.0000 0.0000 89.2277 0.0000 0.0000 89.5171 -19.7684 20.7735 64.3110 0.0000 0.0000 83.5152 0.0000 0.0000 83.6398 -22.9102 20.5992 62.2907 0.0000 0.0000 68.5946 0.0000 0.0000 6.7484 -24.0896 -18.6067 0.0000 0.0000 0.0000 0.0000 0.0000 0.0000 14.7210 -20.7148 -18.9406 0.0000 0.0000 0.0000 0.0000 0.0000 0.0000
